<?xml version="1.0" encoding="utf-8"?>
<!-- Generator: Adobe Illustrator 22.1.0, SVG Export Plug-In . SVG Version: 6.00 Build 0)  -->
<svg version="1.1" id="Слой_1" xmlns="http://www.w3.org/2000/svg" xmlns:xlink="http://www.w3.org/1999/xlink" x="0px" y="0px"
	 viewBox="0 0 30 35" style="enable-background:new 0 0 30 35;" xml:space="preserve">

<path class="st0" d="M15.3,0.6l-0.1,0L2.3,1.9v23.5l12.8,7.6L28,25.5V1.9L15.3,0.6z M26.3,24.5l-11.2,6.6L4,24.5v-9.7l11.1,6.6
	l0,1.2l-7.6-4.5l0,1.2l7.7,4.6l0,1.2l-7.7-4.6l0,1.2l7.7,4.6l7.7-4.6v-1.2l0,0v-0.4v-0.5v-2.9l3.4-2.1V24.5z M26.3,13.5l-3.1,1.8
	l-1.4,0.8l-6.7-4l0,1.2l5.7,3.4l-0.1,0l-0.1,0.1l-0.8,0.5l-4.7-2.8l0,1.2l3.7,2.2L18,18.4l0,0l-2.8-1.7l0,1.2L17,19l-1.9,1.1L4,13.6
	l11.1-6.7v0L26.3,13.5z M26.3,12.3L15.1,5.7v0l0,0l0,0v0L4,12.3V3.4l11.2-1.2l11.2,1.2V12.3z"/>
</svg>
